<?xml version="1.0" encoding="UTF-8"?>
<svg width="946px" height="195px" viewBox="0 0 946 195" version="1.1" xmlns="http://www.w3.org/2000/svg" xmlns:xlink="http://www.w3.org/1999/xlink">
    <!-- Generator: Sketch 48.2 (47327) - http://www.bohemiancoding.com/sketch -->
    <title>Artboard</title>
    <desc>Created with Sketch.</desc>
    <defs></defs>
    <g id="Page-1" stroke="none" stroke-width="1" fill="none" fill-rule="evenodd">
        <g id="Artboard">
            <g id="CCRM-Logo-final-copy" transform="translate(47.000000, 57.000000)">
                <g id="Group-13" transform="translate(0.000000, 0.280000)">
                    <g id="Group">
                        <path d="M45.4624735,90 C57.9966409,90 69.361965,84.9533748 77.5944829,76.8051353 C78.4596389,75.9483486 79.2894823,75.0594179 80.0857789,74.143603 C86.865188,66.3460265 91.0544261,56.4479785 91.0544261,45.3465719 L91.0544261,45.3454031 C91.0544261,32.3270387 101.716443,21.4284323 114.868579,21.4284323 C121.444353,21.4284323 127.398038,24.066587 131.707339,28.3324026 L147,13.1948647 C138.768071,5.04662519 127.402747,0 114.868579,0 C89.8002442,0 69.4061056,20.5319038 69.4061056,45.3454031 C69.4061056,51.854293 66.6105337,57.4017819 62.3012331,61.6675974 C57.9919326,65.933413 52.0382472,68.5715677 45.4624735,68.5715677 C32.3103375,68.5715677 21.648909,58.363183 21.648909,45.3454031 C21.648909,32.3270387 32.3103375,21.4284323 45.4624735,21.4284323 L45.4624735,0 C20.3941386,0 0,20.5319038 0,45.3454031 C0,70.1583179 20.3941386,90 45.4624735,90" id="Fill-1" fill="#282B69"></path>
                        <path d="M147,77.835872 L131.785151,62.7341466 C127.497074,66.9897538 121.573938,69.6217638 115.031353,69.6217638 C105.798832,69.6217638 97.8052048,64.5476586 93.8951258,57 C92.114141,64.6443637 88.4027306,71.8098624 83,77.9448109 C91.1952256,86.0249302 102.528712,91 115.031353,91 C127.501763,91 138.810049,85.9649264 147,77.835872" id="Fill-3" fill="#9B9C9E"></path>
                        <path d="M154.004765,0.69299378 L154.004765,45.0827368 L154,45.0827368 L154,90 C166.096643,90 175.902606,80.3655674 175.902606,68.4813989 L175.902606,45.1643 L175.907371,45.1643 C175.907371,32.0918906 186.693693,21.5180143 200,21.5180143 L200,0 C189.348284,0 179.531599,3.57763173 171.726257,9.57223331 C167.744669,4.19316982 161.29253,0.69299378 154.004765,0.69299378" id="Fill-5" fill="#9B9C9E"></path>
                        <path d="M200,10.0039538 C200,10.0039538 163.948093,8.92073483 163.948093,42.6131498 L163.948093,69.6877277 C163.948093,69.6877277 165.475056,87.569391 157,90 C157,90 174.240625,89.0022828 177.111503,70.500879 L177.111503,42.7440559 C177.111503,42.7440559 178.696923,22.5668174 200,21.3391299 L200,10.0039538 Z" id="Fill-7" fill="#282B69"></path>
                        <path d="M269.516907,0 C255.680193,0 243.268912,6.20965752 234.920116,15.9423094 C227.337637,7.09099056 216.362981,1.17004559 204,0.157213917 L204,21.7282492 C215.355753,23.521306 224.033813,33.2346715 224.033813,44.9766225 L224.033813,45.2074756 L224.033813,68.5715677 C224.033813,80.4064444 233.730881,90 245.692738,90 L245.692738,45.2074756 C245.692738,32.1891113 256.359335,21.4284323 269.516907,21.4284323 C282.674478,21.4284323 293.341076,32.1891113 293.341076,45.2074756 L293.341076,68.5715677 C293.341076,80.4064444 303.038143,90 315,90 L315,45.2074756 C315,20.3939764 294.596281,0 269.516907,0" id="Fill-9" fill="#282B69"></path>
                    </g>
                </g>
                <g id="Group-20" transform="translate(333.000000, 55.280000)" fill="#9B9C9E">
                    <path d="M530.001,14.533 C529.324,14.915 528.612,15.135 527.862,15.194 C527.112,15.253 526.458,15.282 525.9,15.282 L522.063,15.282 L522.063,4.18 L526.693,4.18 C528.546,4.18 529.957,4.621 530.927,5.502 C531.897,6.383 532.382,7.616 532.382,9.202 C532.382,10.73 532.154,11.905 531.699,12.727 C531.243,13.549 530.677,14.152 530.001,14.533 Z M537.255,31.935 C537.064,31.73 536.895,31.443 536.748,31.076 C536.601,30.709 536.484,30.246 536.395,29.688 C536.307,29.131 536.248,28.411 536.219,27.53 L535.956,22.155 C535.868,20.804 535.452,19.629 534.707,18.63 C533.962,17.632 532.903,17.059 531.53,16.912 L531.53,16.824 C532.435,16.619 533.195,16.244 533.809,15.701 C534.422,15.158 534.919,14.526 535.299,13.806 C535.679,13.087 535.949,12.301 536.11,11.449 C536.271,10.598 536.351,9.746 536.351,8.894 C536.351,6.398 535.631,4.459 534.19,3.079 C532.75,1.699 530.78,1.008 528.281,1.008 L518.094,1.008 L518.094,32.464 L522.063,32.464 L522.063,18.454 L527.311,18.454 C527.81,18.454 528.317,18.491 528.832,18.564 C529.346,18.638 529.825,18.828 530.266,19.137 C530.707,19.445 531.081,19.901 531.39,20.503 C531.699,21.105 531.897,21.95 531.985,23.036 L532.25,27.926 C532.279,28.308 532.315,28.727 532.358,29.182 C532.4,29.637 532.465,30.078 532.552,30.503 C532.638,30.929 532.738,31.318 532.854,31.671 C532.969,32.023 533.113,32.288 533.286,32.464 L537.895,32.464 C537.659,32.317 537.446,32.141 537.255,31.935 Z M502.527,17.749 L514.125,17.749 L514.125,14.313 L502.527,14.313 L502.527,4.444 L514.831,4.444 L514.831,1.008 L498.558,1.008 L498.558,32.464 L515.36,32.464 L515.36,29.027 L502.527,29.027 L502.527,17.749 Z M480.339,7.418 C480.772,6.229 481.392,5.289 482.198,4.599 C483.004,3.909 484.094,3.563 485.467,3.563 C486.452,3.563 487.273,3.733 487.931,4.07 C488.587,4.408 489.117,4.856 489.52,5.413 C489.923,5.972 490.222,6.625 490.416,7.374 C490.61,8.123 490.737,8.909 490.797,9.731 L494.766,9.731 C494.766,9.467 494.744,9.048 494.7,8.475 C494.656,7.903 494.538,7.271 494.347,6.581 C494.155,5.891 493.869,5.179 493.487,4.444 C493.105,3.71 492.568,3.042 491.877,2.44 C491.186,1.838 490.319,1.346 489.276,0.964 C488.232,0.583 486.96,0.391 485.461,0.391 C483.285,0.391 481.536,0.869 480.213,1.823 C478.89,2.778 477.861,4.033 477.126,5.59 C476.391,7.147 475.906,8.902 475.671,10.854 C475.435,12.808 475.318,14.768 475.318,16.736 C475.318,18.851 475.435,20.892 475.671,22.86 C475.906,24.827 476.369,26.568 477.06,28.08 C477.75,29.593 478.728,30.805 479.992,31.715 C481.256,32.625 482.918,33.08 484.976,33.08 C486.74,33.08 488.21,32.603 489.386,31.649 C490.561,30.695 491.355,29.541 491.767,28.19 L491.855,28.19 L491.855,32.464 L494.766,32.464 L494.766,16.119 L485.02,16.119 L485.02,19.291 L491.238,19.291 C491.238,20.348 491.186,21.494 491.082,22.727 C490.979,23.961 490.734,25.106 490.349,26.164 C489.964,27.221 489.386,28.11 488.617,28.829 C487.847,29.549 486.78,29.908 485.418,29.908 C484.055,29.908 482.974,29.564 482.175,28.873 C481.375,28.183 480.76,27.243 480.331,26.054 C479.901,24.864 479.62,23.469 479.487,21.868 C479.353,20.268 479.287,18.557 479.287,16.736 C479.287,14.915 479.354,13.205 479.488,11.603 C479.622,10.003 479.906,8.608 480.339,7.418 Z M458.817,20.657 L463.234,5.458 L463.323,5.458 L467.386,20.657 L458.817,20.657 Z M460.765,1.008 L451.68,32.464 L455.649,32.464 L458.014,23.829 L468.19,23.829 L470.467,32.464 L474.436,32.464 L465.969,1.008 L460.765,1.008 Z M446.477,27.265 L446.388,27.265 L435.981,1.008 L434.79,1.008 L430.954,1.008 L430.954,32.464 L434.834,32.464 L434.834,7 L434.923,7 L445.021,32.464 L446.521,32.464 L450.358,32.464 L450.358,1.008 L446.477,1.008 L446.477,27.265 Z M414.012,20.657 L418.429,5.458 L418.517,5.458 L422.581,20.657 L414.012,20.657 Z M415.96,1.008 L406.875,32.464 L410.844,32.464 L413.208,23.829 L423.384,23.829 L425.662,32.464 L429.631,32.464 L421.163,1.008 L415.96,1.008 Z M392.675,25.943 L392.586,25.943 L386.28,1.008 L379.622,1.008 L379.622,32.464 L383.591,32.464 L383.591,4.973 L383.679,4.973 L390.647,32.464 L394.616,32.464 L401.583,4.973 L401.672,4.973 L401.672,32.464 L405.641,32.464 L405.641,1.008 L398.981,1.008 L392.675,25.943 Z M368.024,1.008 L363.702,1.008 L352.809,16.251 L352.721,16.251 L352.721,1.008 L348.752,1.008 L348.752,32.464 L352.721,32.464 L352.721,21.758 L355.985,17.309 L364.496,32.464 L368.818,32.464 L358.498,14.137 L368.024,1.008 Z M341.828,16.692 C340.719,16.075 339.521,15.584 338.234,15.216 C336.947,14.849 335.75,14.43 334.641,13.96 C333.532,13.491 332.608,12.859 331.868,12.066 C331.129,11.273 330.76,10.143 330.76,8.674 C330.76,7 331.208,5.73 332.105,4.863 C333.001,3.997 334.287,3.563 335.963,3.563 C336.874,3.563 337.646,3.703 338.279,3.982 C338.911,4.261 339.418,4.643 339.8,5.127 C340.182,5.612 340.454,6.2 340.616,6.889 C340.777,7.58 340.858,8.336 340.858,9.158 L344.828,9.158 C344.768,6.222 344.04,4.026 342.645,2.572 C341.248,1.118 339.035,0.391 336.007,0.391 C334.008,0.391 332.406,0.707 331.201,1.338 C329.995,1.97 329.062,2.741 328.4,3.651 C327.739,4.562 327.305,5.509 327.099,6.493 C326.893,7.477 326.791,8.336 326.791,9.07 C326.791,10.51 327.005,11.714 327.433,12.683 C327.862,13.652 328.425,14.453 329.12,15.084 C329.814,15.716 330.613,16.229 331.515,16.626 C332.417,17.022 333.334,17.382 334.266,17.705 C335.197,18.029 336.114,18.344 337.016,18.652 C337.918,18.961 338.716,19.357 339.412,19.842 C340.106,20.326 340.668,20.921 341.097,21.626 C341.525,22.331 341.741,23.242 341.741,24.357 C341.741,25.21 341.601,25.973 341.321,26.648 C341.042,27.324 340.66,27.904 340.175,28.388 C339.69,28.873 339.109,29.248 338.433,29.512 C337.756,29.776 337.036,29.908 336.272,29.908 C334.861,29.908 333.758,29.696 332.965,29.27 C332.171,28.844 331.582,28.278 331.201,27.574 C330.818,26.869 330.583,26.083 330.495,25.217 C330.407,24.351 330.363,23.476 330.363,22.595 L326.394,22.595 C326.394,24.269 326.548,25.76 326.857,27.067 C327.165,28.374 327.68,29.468 328.4,30.349 C329.12,31.23 330.09,31.906 331.311,32.376 C332.53,32.845 334.067,33.08 335.919,33.08 C337.036,33.08 338.175,32.933 339.337,32.64 C340.498,32.347 341.549,31.847 342.49,31.142 C343.431,30.437 344.202,29.483 344.805,28.278 C345.408,27.075 345.71,25.562 345.71,23.741 C345.71,21.832 345.339,20.334 344.6,19.247 C343.861,18.161 342.937,17.309 341.828,16.692 Z M319.47,32.464 L323.439,32.464 L323.439,1.008 L319.47,1.008 L319.47,32.464 Z M309.371,14.533 C308.695,14.915 307.982,15.135 307.233,15.194 C306.483,15.253 305.829,15.282 305.27,15.282 L301.434,15.282 L301.434,4.18 L306.064,4.18 C307.916,4.18 309.327,4.621 310.298,5.502 C311.268,6.383 311.753,7.616 311.753,9.202 C311.753,10.73 311.525,11.905 311.07,12.727 C310.613,13.549 310.048,14.152 309.371,14.533 Z M316.119,31.076 C315.971,30.709 315.854,30.246 315.766,29.688 C315.678,29.131 315.619,28.411 315.59,27.53 L315.326,22.155 C315.239,20.804 314.823,19.629 314.078,18.63 C313.332,17.632 312.273,17.059 310.901,16.912 L310.901,16.824 C311.806,16.619 312.566,16.244 313.179,15.701 C313.793,15.158 314.289,14.526 314.67,13.806 C315.049,13.087 315.32,12.301 315.481,11.449 C315.641,10.598 315.722,9.746 315.722,8.894 C315.722,6.398 315.001,4.459 313.561,3.079 C312.12,1.699 310.15,1.008 307.652,1.008 L297.465,1.008 L297.465,32.464 L301.434,32.464 L301.434,18.454 L306.681,18.454 C307.181,18.454 307.688,18.491 308.203,18.564 C308.717,18.638 309.195,18.828 309.636,19.137 C310.077,19.445 310.452,19.901 310.761,20.503 C311.07,21.105 311.268,21.95 311.356,23.036 L311.621,27.926 C311.65,28.308 311.685,28.727 311.728,29.182 C311.771,29.637 311.836,30.078 311.923,30.503 C312.009,30.929 312.109,31.318 312.224,31.671 C312.339,32.023 312.483,32.288 312.656,32.464 L317.266,32.464 C317.03,32.317 316.817,32.141 316.626,31.935 C316.434,31.73 316.266,31.443 316.119,31.076 Z M266.022,4.444 L273.916,4.444 L273.916,32.464 L277.885,32.464 L277.885,4.444 L285.823,4.444 L285.823,1.008 L266.022,1.008 L266.022,4.444 Z M260.113,32.464 L264.082,32.464 L264.082,1.008 L260.113,1.008 L260.113,32.464 Z M252.131,21.119 C251.983,22.603 251.653,23.946 251.139,25.15 C250.624,26.355 249.874,27.346 248.89,28.124 C247.904,28.903 246.574,29.292 244.898,29.292 L240.841,29.292 L240.841,4.18 L244.898,4.18 C246.662,4.18 248.044,4.555 249.044,5.304 C250.043,6.052 250.786,7.022 251.271,8.211 C251.756,9.401 252.057,10.744 252.175,12.242 C252.292,13.74 252.351,15.253 252.351,16.78 C252.351,18.19 252.278,19.637 252.131,21.119 Z M254.468,5.612 C253.703,4.188 252.594,3.064 251.139,2.242 C249.683,1.42 247.735,1.008 245.295,1.008 L236.872,1.008 L236.872,32.464 L245.692,32.464 C247.838,32.464 249.602,32.016 250.984,31.12 C252.366,30.224 253.454,29.042 254.248,27.574 C255.041,26.105 255.585,24.431 255.879,22.551 C256.173,20.672 256.32,18.734 256.32,16.736 C256.32,14.563 256.202,12.522 255.968,10.612 C255.732,8.703 255.232,7.037 254.468,5.612 Z M220.908,17.749 L232.507,17.749 L232.507,14.313 L220.908,14.313 L220.908,4.444 L233.212,4.444 L233.212,1.008 L216.939,1.008 L216.939,32.464 L233.741,32.464 L233.741,29.027 L220.908,29.027 L220.908,17.749 Z M206.841,14.533 C206.164,14.915 205.452,15.135 204.702,15.194 C203.952,15.253 203.298,15.282 202.739,15.282 L198.903,15.282 L198.903,4.18 L203.533,4.18 C205.385,4.18 206.797,4.621 207.767,5.502 C208.737,6.383 209.222,7.616 209.222,9.202 C209.222,10.73 208.994,11.905 208.539,12.727 C208.082,13.549 207.517,14.152 206.841,14.533 Z M213.588,31.076 C213.44,30.709 213.323,30.246 213.235,29.688 C213.147,29.131 213.088,28.411 213.059,27.53 L212.796,22.155 C212.708,20.804 212.292,19.629 211.547,18.63 C210.801,17.632 209.742,17.059 208.37,16.912 L208.37,16.824 C209.275,16.619 210.035,16.244 210.648,15.701 C211.262,15.158 211.758,14.526 212.139,13.806 C212.518,13.087 212.789,12.301 212.95,11.449 C213.11,10.598 213.191,9.746 213.191,8.894 C213.191,6.398 212.47,4.459 211.03,3.079 C209.589,1.699 207.619,1.008 205.121,1.008 L194.934,1.008 L194.934,32.464 L198.903,32.464 L198.903,18.454 L204.151,18.454 C204.65,18.454 205.157,18.491 205.672,18.564 C206.186,18.638 206.664,18.828 207.105,19.137 C207.546,19.445 207.921,19.901 208.23,20.503 C208.539,21.105 208.737,21.95 208.825,23.036 L209.09,27.926 C209.119,28.308 209.155,28.727 209.197,29.182 C209.24,29.637 209.305,30.078 209.392,30.503 C209.478,30.929 209.578,31.318 209.693,31.671 C209.808,32.023 209.953,32.288 210.125,32.464 L214.735,32.464 C214.499,32.317 214.286,32.141 214.095,31.935 C213.903,31.73 213.735,31.443 213.588,31.076 Z M187.984,24.578 C187.85,25.547 187.581,26.428 187.178,27.221 C186.776,28.014 186.216,28.66 185.499,29.159 C184.783,29.659 183.828,29.908 182.634,29.908 C181.261,29.908 180.172,29.564 179.366,28.873 C178.56,28.183 177.941,27.243 177.508,26.054 C177.076,24.864 176.792,23.469 176.657,21.868 C176.523,20.268 176.456,18.557 176.456,16.736 C176.456,14.915 176.523,13.205 176.657,11.603 C176.792,10.003 177.076,8.608 177.508,7.418 C177.941,6.229 178.561,5.289 179.367,4.599 C180.173,3.909 181.263,3.563 182.636,3.563 C183.651,3.563 184.495,3.739 185.167,4.092 C185.838,4.444 186.376,4.922 186.779,5.524 C187.182,6.126 187.473,6.831 187.653,7.638 C187.832,8.447 187.936,9.29 187.966,10.171 L191.935,10.171 C191.847,7.059 191.075,4.65 189.62,2.947 C188.165,1.244 185.834,0.391 182.63,0.391 C180.454,0.391 178.705,0.869 177.382,1.823 C176.059,2.778 175.03,4.033 174.295,5.59 C173.56,7.147 173.075,8.902 172.84,10.854 C172.604,12.808 172.487,14.768 172.487,16.736 C172.487,18.734 172.597,20.701 172.818,22.639 C173.038,24.578 173.501,26.326 174.207,27.882 C174.913,29.439 175.934,30.695 177.272,31.649 C178.609,32.603 180.395,33.08 182.63,33.08 C184.335,33.08 185.783,32.764 186.974,32.133 C188.165,31.502 189.127,30.657 189.862,29.6 C190.597,28.543 191.148,27.331 191.516,25.965 C191.884,24.6 192.111,23.168 192.2,21.67 L188.231,21.67 C188.2,22.639 188.118,23.609 187.984,24.578 Z M150.986,29.027 C150.111,29.615 149.06,29.908 147.835,29.908 C147.077,29.908 146.347,29.784 145.647,29.534 C144.947,29.285 144.335,28.91 143.81,28.411 C143.285,27.912 142.868,27.302 142.563,26.582 C142.256,25.863 142.103,25.018 142.103,24.049 C142.103,22.375 142.528,20.951 143.378,19.776 C144.228,18.601 145.273,17.632 146.513,16.868 L153.436,26.869 C152.678,27.721 151.861,28.44 150.986,29.027 Z M145.741,4.775 C146.314,4.202 147.071,3.916 148.012,3.916 C148.953,3.916 149.717,4.202 150.305,4.775 C150.893,5.348 151.187,6.09 151.187,7 C151.187,8.057 150.893,8.938 150.305,9.643 C149.717,10.348 149.071,11.038 148.365,11.714 L147.527,12.507 L146.777,11.449 C146.277,10.715 145.836,9.966 145.454,9.202 C145.072,8.439 144.881,7.705 144.881,7 C144.881,6.09 145.168,5.348 145.741,4.775 Z M158.398,25.04 C158.706,24.263 158.978,23.418 159.214,22.507 C159.449,21.597 159.647,20.701 159.809,19.82 C159.97,18.939 160.051,18.205 160.051,17.617 L156.612,17.617 C156.494,19.027 156.339,20.202 156.149,21.141 C155.957,22.082 155.7,22.948 155.377,23.741 L149.159,14.841 L150.305,13.872 C150.835,13.432 151.364,12.969 151.893,12.484 C152.422,12 152.885,11.479 153.282,10.92 C153.679,10.363 154.002,9.761 154.252,9.114 C154.502,8.469 154.627,7.764 154.627,7 C154.627,4.856 154.024,3.321 152.819,2.396 C151.613,1.471 149.997,1.008 147.968,1.008 C147.086,1.008 146.248,1.155 145.454,1.449 C144.661,1.743 143.962,2.161 143.36,2.704 C142.757,3.248 142.286,3.901 141.949,4.665 C141.61,5.429 141.441,6.266 141.441,7.176 C141.441,8.292 141.676,9.306 142.147,10.216 C142.617,11.126 143.146,12.022 143.734,12.903 L144.705,14.489 L142.412,16.207 C141.088,17.206 140.045,18.395 139.28,19.776 C138.516,21.157 138.134,22.683 138.134,24.357 C138.134,25.062 138.259,25.915 138.509,26.913 C138.758,27.912 139.229,28.866 139.92,29.776 C140.61,30.687 141.566,31.466 142.786,32.111 C144.006,32.757 145.572,33.08 147.483,33.08 C149.188,33.08 150.607,32.779 151.739,32.177 C152.87,31.576 154.039,30.687 155.244,29.512 L157.361,32.464 L161.551,32.464 L157.494,26.781 C157.787,26.399 158.089,25.819 158.398,25.04 Z M115.159,1.008 L111.19,1.008 L111.19,32.464 L127.86,32.464 L127.86,29.027 L115.159,29.027 L115.159,1.008 Z M94.248,20.657 L98.665,5.458 L98.754,5.458 L102.817,20.657 L94.248,20.657 Z M96.196,1.008 L87.111,32.464 L91.08,32.464 L93.445,23.829 L103.621,23.829 L105.898,32.464 L109.867,32.464 L101.4,1.008 L96.196,1.008 Z M90.507,1.008 L70.706,1.008 L70.706,4.444 L78.6,4.444 L78.6,32.464 L82.569,32.464 L82.569,4.444 L90.507,4.444 L90.507,1.008 Z M64.797,32.464 L68.766,32.464 L68.766,1.008 L64.797,1.008 L64.797,32.464 Z M56.727,14.489 C55.698,15.488 54.478,15.987 53.067,15.987 L48.437,15.987 L48.437,4.18 L52.803,4.18 C54.743,4.18 56.139,4.687 56.992,5.7 C57.844,6.713 58.271,8.101 58.271,9.863 C58.271,11.949 57.756,13.491 56.727,14.489 Z M60.321,3.695 C59.748,3.02 59.101,2.499 58.381,2.131 C57.66,1.765 56.94,1.5 56.22,1.338 C55.499,1.177 54.809,1.082 54.148,1.052 C53.486,1.023 52.935,1.008 52.494,1.008 L44.468,1.008 L44.468,32.464 L48.437,32.464 L48.437,19.159 L53.213,19.159 C54.527,19.159 55.739,18.961 56.85,18.564 C57.96,18.168 58.916,17.58 59.72,16.802 C60.523,16.024 61.144,15.069 61.582,13.938 C62.021,12.808 62.24,11.508 62.24,10.039 C62.24,8.542 62.064,7.279 61.711,6.251 C61.358,5.223 60.895,4.371 60.321,3.695 Z M27.526,20.657 L31.943,5.458 L32.032,5.458 L36.095,20.657 L27.526,20.657 Z M29.474,1.008 L20.389,32.464 L24.358,32.464 L26.722,23.829 L36.898,23.829 L39.176,32.464 L43.145,32.464 L34.677,1.008 L29.474,1.008 Z M16.597,21.67 C16.566,22.639 16.484,23.609 16.35,24.578 C16.216,25.547 15.947,26.428 15.545,27.221 C15.141,28.014 14.582,28.66 13.865,29.159 C13.149,29.659 12.194,29.908 11,29.908 C9.628,29.908 8.538,29.564 7.732,28.873 C6.926,28.183 6.307,27.243 5.874,26.054 C5.441,24.864 5.158,23.469 5.023,21.868 C4.889,20.268 4.822,18.557 4.822,16.736 C4.822,14.915 4.889,13.205 5.023,11.603 C5.158,10.003 5.441,8.608 5.874,7.418 C6.307,6.229 6.927,5.289 7.733,4.599 C8.54,3.909 9.629,3.563 11.002,3.563 C12.017,3.563 12.861,3.739 13.532,4.092 C14.204,4.444 14.742,4.922 15.145,5.524 C15.548,6.126 15.839,6.831 16.019,7.638 C16.198,8.447 16.302,9.29 16.332,10.171 L20.301,10.171 C20.213,7.059 19.441,4.65 17.986,2.947 C16.531,1.244 14.2,0.391 10.996,0.391 C8.82,0.391 7.071,0.869 5.748,1.823 C4.425,2.778 3.396,4.033 2.661,5.59 C1.926,7.147 1.441,8.902 1.206,10.854 C0.97,12.808 0.853,14.768 0.853,16.736 C0.853,18.734 0.963,20.701 1.184,22.639 C1.404,24.578 1.867,26.326 2.573,27.882 C3.279,29.439 4.3,30.695 5.638,31.649 C6.975,32.603 8.761,33.08 10.996,33.08 C12.701,33.08 14.149,32.764 15.34,32.133 C16.531,31.502 17.493,30.657 18.228,29.6 C18.963,28.543 19.514,27.331 19.882,25.965 C20.249,24.6 20.478,23.168 20.566,21.67 L16.597,21.67 Z" id="Fill-18"></path>
                </g>
            </g>
        </g>
    </g>
</svg>